<?xml version="1.0" encoding="utf-8"?>
<?xml-stylesheet type="text/xsl" href="rss1.xsl"?>
<rss version="2.0" xmlns:atom="http://www.w3.org/2005/Atom" xmlns:content="http://purl.org/rss/1.0/modules/content/" xmlns:dc="http://purl.org/dc/elements/1.1/" xmlns:media="http://search.yahoo.com/mrss/">
<channel>
 <title>Getty</title>
 <link>http://www.gettyimg.com/</link>
 <atom:link href="http://www.gettyimg.com/" rel="self" type="application/rss+xml" />

 
                <item>
                <title><![CDATA[【HD Live Performances】UPSCALE - Whitney Houston - Good Morning America [Dec-10-2002] 1080p Remastered MPA2.0 HEVC-MELODiE]]></title>
                <link><![CDATA[https://sharemania.us/threads/whitney-houston-good-morning-america-dec-10-2002-1080p-remastered-mpa2-0-hevc-melodie.235666/]]></link>
                <description><![CDATA[<article>
<blockquote class="messageText SelectQuoteContainer ugc baseHtml">
<div style="text-align: center"><b><span style="color: rgb(255, 0, 0)">Whitney Houston - Good Morning America [Dec-10-2002] 1080p Remastered MPA2.0 HEVC-MELODiE</span></b><br>
<br>
<img src="https://i.imgur.com/Ac3th3E.jpg" class="bbCodeImage LbImage" alt="[​IMG]" data-url="https://i.imgur.com/Ac3th3E.jpg" style=""><br>
<img src="https://i.imgur.com/ggHP6JY.jpg" class="bbCodeImage LbImage" alt="[​IMG]" data-url="https://i.imgur.com/ggHP6JY.jpg" style=""><br>
<br>
My old attempts to make something good out of what I have, it seems to me that I killed the color scheme, but I like the picture<br>
<br>
My video but stretched to 4K so it looks decent on YouTube<br>
<span data-s9e-mediaembed="youtube" style="display:inline-block;width:100%;max-width:640px"><span style="display:block;overflow:hidden;position:relative;padding-bottom:56.25%"><iframe allowfullscreen="" loading="lazy" scrolling="no" style="background:url(https://i.ytimg.com/vi/KWD2FvOqhK4/hqdefault.jpg) 50% 50% / cover;border:0;height:100%;left:0;position:absolute;width:100%" src="https://www.youtube.com/embed/KWD2FvOqhK4"></iframe></span></span><br>
<br>
Setlist:<br>
One Of Those Days<br>
Do Your Hear What I Hear?<br>
Jesus Loves Me<br>
Tell Me No<br>
<br>
<div class="ToggleTriggerAnchor bbCodeSpoilerContainer">
<button type="button" class="button bbCodeSpoilerButton ToggleTrigger Tooltip JsOnly" data-target="> .SpoilerTarget"><span>Spoiler: <span class="SpoilerTitle">MediaInfo</span></span></button>
<div class="SpoilerTarget bbCodeSpoilerText">Format : Matroska<br>
Format version : Version 4<br>
File size : 2.44 GiB<br>
Duration : 16 min 24 s<br>
Overall bit rate : 21.3 Mb/s<br>
Encoded date : UTC 2022-08-20 20:24:51<br>
Writing application : mkvmerge v69.0.0 ('Day And Age') 64-bit<br>
Writing library : libebml v1.4.2 + libmatroska v1.6.4<br>
<br>
Video<br>
ID : 1<br>
Format : HEVC<br>
Format/Info : High Efficiency Video Coding<br>
Format profile : Main@L4.1@Main<br>
Codec ID : V_MPEGH/ISO/HEVC<br>
Duration : 16 min 24 s<br>
Bit rate : 20.9 Mb/s<br>
Width : 1 446 pixels<br>
Height : 1 080 pixels<br>
Display aspect ratio : 4:3<br>
Frame rate mode : Constant<br>
Frame rate : 29.970 (30000/1001) FPS<br>
Color space : YUV<br>
Chroma subsampling : 4:2:0<br>
Bit depth : 8 bits<br>
Bits/(Pixel*Frame) : 0.447<br>
Stream size : 2.40 GiB (98%)<br>
Language : English<br>
Default : Yes<br>
Forced : No<br>
<br>
Audio<br>
ID : 2<br>
Format : MPEG Audio<br>
Format version : Version 1<br>
Format profile : Layer 2<br>
Codec ID : A_MPEG/L2<br>
Codec ID/Hint : MP2<br>
Duration : 16 min 24 s<br>
Bit rate mode : Constant<br>
Bit rate : 384 kb/s<br>
Channel(s) : 2 channels<br>
Sampling rate : 48.0 kHz<br>
Frame rate : 41.667 FPS (1152 SPF)<br>
Compression mode : Lossy<br>
Stream size : 45.1 MiB (2%)<br>
Language : English<br>
Default : Yes<br>
Forced : No</div>
</div><br>
<div class="bbCodeBlock bbCodeVfcHH HiddenContent">
<div class="attribution type">Hidden Content:</div>
<blockquote>You must either reply or click 'Like' to see the hidden information contained here.</blockquote>
</div></div>
<div class="messageTextEndMarker">&nbsp;</div>
</blockquote>
</article>]]></description>
                <author><![CDATA[melodie]]></author>
                </item>

                </channel></rss>